<svg width="30" height="30" viewBox="0 0 30 30" fill="none" xmlns="http://www.w3.org/2000/svg">
<rect width="30" height="30" rx="1" fill="url(#paint0_linear_1120_1463)"/>
<path d="M14.252 7C16.0111 7 17.5483 7.35518 18.8637 8.06553C20.1791 8.77588 21.1933 9.77683 21.9065 11.0684C22.6355 12.3438 23 13.821 23 15.5C23 17.1629 22.6355 18.6401 21.9065 19.9316C21.1933 21.2232 20.1712 22.2241 18.8399 22.9345C17.5246 23.6448 15.9952 24 14.252 24H9C8.44771 24 8 23.5523 8 23V8C8 7.44772 8.44772 7 9 7H14.252ZM13.9905 20.416C15.5277 20.416 16.7242 19.9881 17.58 19.1325C18.4358 18.2768 18.8637 17.066 18.8637 15.5C18.8637 13.934 18.4358 12.7151 17.58 11.8433C16.7242 10.9715 15.5277 10.5356 13.9905 10.5356H13.065C12.5127 10.5356 12.065 10.9833 12.065 11.5356V19.416C12.065 19.9682 12.5127 20.416 13.065 20.416H13.9905Z" fill="white"/>
<defs>
<linearGradient id="paint0_linear_1120_1463" x1="15" y1="0" x2="15" y2="30" gradientUnits="userSpaceOnUse">
<stop stop-color="#0082E5"/>
<stop offset="0.221154" stop-color="#003FA7"/>
<stop offset="1" stop-color="#003FA7"/>
</linearGradient>
</defs>
</svg>
