<svg width="1633" height="83" viewBox="0 0 1633 83" fill="none" xmlns="http://www.w3.org/2000/svg">
<path d="M1483.28 42.0106C1483.28 21.8267 1499.7 5.40625 1519.88 5.40625V21.9069C1508.8 21.9069 1499.78 30.9252 1499.78 42.0096C1499.78 53.094 1508.8 62.1124 1519.88 62.1124V78.613C1499.7 78.614 1483.28 62.1936 1483.28 42.0106Z" fill="white" fill-opacity="0.5"/>
<path d="M1530.57 24.9935H1552.28C1546.14 13.3572 1533.92 5.40625 1519.88 5.40625V21.9069C1523.81 21.9069 1527.47 23.0388 1530.57 24.9925V24.9935Z" fill="white" fill-opacity="0.8"/>
<path d="M1520.78 36.875H1519.88V48.7561H1538.81C1536.04 56.5331 1528.6 62.1148 1519.88 62.1148V78.6155C1540.06 78.6155 1556.48 62.195 1556.48 42.0111C1556.48 40.2678 1556.36 38.5537 1556.12 36.875H1520.78Z" fill="white" fill-opacity="0.8"/>
<path d="M1559.8 42.0106C1559.8 21.8267 1576.22 5.40625 1596.4 5.40625V21.9069C1585.32 21.9069 1576.3 30.9252 1576.3 42.0096C1576.3 53.094 1585.32 62.1123 1596.4 62.1123V78.613C1576.22 78.614 1559.8 62.1936 1559.8 42.0106Z" fill="white" fill-opacity="0.5"/>
<path d="M1633 42.0106C1633 21.8267 1616.58 5.40625 1596.4 5.40625V21.9069C1607.48 21.9069 1616.5 30.9252 1616.5 42.0096C1616.5 53.094 1607.48 62.1123 1596.4 62.1123V78.613C1616.58 78.614 1633 62.1936 1633 42.0106Z" fill="white" fill-opacity="0.8"/>
<circle cx="1458" cy="41" r="8" fill="white"/>
<mask id="mask0_598_975" style="mask-type:luminance" maskUnits="userSpaceOnUse" x="871" y="2" width="565" height="79">
<path d="M1435.32 2.07812H871V80.5915H1435.32V2.07812Z" fill="white"/>
</mask>
<g mask="url(#mask0_598_975)">
<path d="M990.23 49.1797C988.885 49.1797 987.895 49.5432 987.25 50.265C986.605 50.9868 986.276 52.088 986.252 53.5634V56.5999C986.252 58.0916 986.582 59.1928 987.235 59.8983C987.887 60.6041 988.901 60.9567 990.269 60.9567C991.637 60.9567 992.573 60.6095 993.217 59.9199C993.862 59.23 994.184 58.1556 994.2 56.7015V53.7344C994.2 52.1949 993.878 51.0508 993.233 50.3025C992.588 49.5542 991.59 49.1797 990.23 49.1797Z" fill="white"/>
<path d="M927.813 49.1797H926.628V60.9567H927.605C928.694 60.9567 929.458 60.6403 929.904 60.0125C930.349 59.3847 930.582 58.2957 930.602 56.7573V53.674C930.602 52.0186 930.39 50.8629 929.969 50.2076C929.549 49.5522 928.83 49.2132 927.818 49.1797H927.813Z" fill="white"/>
<path d="M1029.82 69.675C1028.99 65.6534 1025.42 65.4798 1024.27 65.3244C1023.95 62.7451 1022.85 -21.7776 915.895 8.69457L908.253 27.5572C908.253 27.5572 891.91 36.7074 891.554 62.3979L871 69.591C871 69.591 872.335 80.5005 881.336 80.5905C888.398 80.6622 917.791 76.9876 950.391 76.6108C950.391 76.6108 963.634 76.6347 964.358 76.6406C985.049 76.8083 996.802 78.5975 1018.77 80.0158C1030.84 80.7936 1030.17 71.3864 1029.82 69.6809V69.675ZM916.001 36.9527C914.111 35.6958 913.992 33.0029 915.745 31.5667C946.854 6.13923 975.91 13.4102 990.189 19.5142C990.67 19.7177 990.414 20.4119 989.909 20.2862C959.211 12.6323 936.331 27.5572 926.58 34.9718C920.436 39.6456 916.001 36.9527 916.001 36.9527ZM935.027 56.1622C935.027 58.6698 934.334 60.6446 932.956 62.0688C931.577 63.4991 929.675 64.2112 927.248 64.2112H922.095V45.1093H927.36C929.687 45.1093 931.54 45.8155 932.918 47.2338C934.297 48.6521 935.002 50.5909 935.033 53.0564V56.1503L935.027 56.1622ZM950.859 58.3405C950.84 60.3275 950.272 61.8474 949.15 62.9005C948.027 63.9539 946.417 64.4805 944.321 64.4805C942.225 64.4805 940.56 63.948 939.431 62.8826C938.302 61.8175 937.74 60.2734 937.74 58.2508V45.1212H941.789V58.2628C941.789 59.3458 941.97 60.124 942.338 60.5848C942.706 61.0456 943.361 61.279 944.321 61.279C945.282 61.279 945.937 61.0516 946.292 60.5908C946.648 60.13 946.829 59.376 946.842 58.3285V45.1212H950.859V58.3465V58.3405ZM965.337 64.2172H953.909V45.1153H965.312V48.3287H957.926V52.8409H964.189V55.9468H957.926V61.0094H965.337V64.2112V64.2172ZM972.193 60.0941C972.735 60.8839 973.628 61.279 974.869 61.279C975.661 61.279 976.303 61.1233 976.796 60.8182L977.152 60.5848V57.0839H974.332V54.1696H981.182V62.0509C980.408 62.8527 979.454 63.4632 978.331 63.8699C977.202 64.277 975.973 64.4805 974.632 64.4805C972.343 64.4805 970.565 63.7982 969.298 62.4397C968.032 61.0815 967.377 59.1004 967.346 56.5035V53.0683C967.346 50.4352 967.945 48.4127 969.142 46.9884C970.34 45.5701 972.087 44.858 974.388 44.858C976.547 44.858 978.181 45.3666 979.279 46.3898C980.377 47.413 981.013 49.0169 981.188 51.2012H977.277C977.171 49.9864 976.902 49.1547 976.484 48.7178C976.066 48.2749 975.411 48.0535 974.513 48.0535C973.428 48.0535 972.642 48.4366 972.149 49.1965C971.656 49.9565 971.4 51.1713 971.382 52.829V56.294C971.382 58.0354 971.656 59.298 972.193 60.0941ZM998.043 56.3896C998.043 58.951 997.413 60.9437 996.147 62.356C994.887 63.7743 993.134 64.4805 990.888 64.4805C988.642 64.4805 986.902 63.7803 985.623 62.3739C984.344 60.9676 983.702 59.0048 983.683 56.4793V53.2121C983.683 50.5909 984.319 48.5382 985.586 47.0661C986.852 45.594 988.611 44.858 990.863 44.858C993.115 44.858 994.824 45.5821 996.103 47.0302C997.382 48.4784 998.024 50.5069 998.043 53.1221V56.3896Z" fill="white"/>
<path d="M1341.16 25.6439L1347.89 6.01562H1287.07L1280.33 25.6439H1341.16Z" fill="white"/>
<path d="M1341.16 53.1206L1347.89 33.4922H1287.07L1280.33 53.1206H1341.16Z" fill="white"/>
<path d="M1341.16 80.5891L1347.89 60.9609H1287.07L1280.33 80.5891H1341.16Z" fill="white"/>
<path d="M1114.73 45.0555C1112.96 42.3819 1110.07 40.2206 1106.12 38.6363C1102.11 37.0284 1096.74 35.9507 1090.18 35.4444L1076.74 34.2841C1072.99 33.9485 1070.47 33.3065 1069.02 32.3171C1067.51 31.2865 1066.74 29.9319 1066.74 28.2888C1066.74 26.0745 1068.02 24.4019 1070.53 23.3183C1072.87 22.3171 1076.04 21.8047 1079.96 21.8047C1082.91 21.8047 1085.5 22.1051 1087.66 22.7058C1089.87 23.3124 1091.6 24.2017 1092.83 25.3442C1093.92 26.363 1094.65 27.5527 1094.99 28.8778H1115.5C1115.09 24.4903 1113.43 20.5798 1110.58 17.2347C1107.55 13.6953 1103.41 10.9096 1098.27 8.96614C1093.1 7.00502 1087.09 6.01562 1080.43 6.01562C1073.77 6.01562 1067.42 6.91667 1062.34 8.68348C1057.3 10.4385 1053.33 13.0533 1050.52 16.4573C1047.73 19.8378 1046.32 24.1133 1046.32 29.1664C1046.32 35.3265 1048.5 40.2913 1052.79 43.919C1057.13 47.5764 1064.3 49.82 1074.1 50.5796L1086.33 51.6457C1090.51 51.9813 1093.26 52.641 1094.74 53.6599C1096.29 54.7256 1097.07 56.1333 1097.07 57.8352C1097.07 60.2441 1095.74 62.0462 1093.09 63.1946C1090.63 64.2663 1087.18 64.8082 1082.84 64.8082C1079.69 64.8082 1076.91 64.4549 1074.56 63.76C1072.18 63.0532 1070.25 62.0167 1068.85 60.6917C1067.57 59.4785 1066.74 58.0649 1066.39 56.4809H1045.88C1046.13 61.0685 1047.71 65.185 1050.61 68.7128C1053.66 72.4408 1057.96 75.3853 1063.37 77.4584C1068.82 79.5433 1075.24 80.6034 1082.46 80.6034C1089.68 80.6034 1095.71 79.5314 1100.94 77.4112C1106.13 75.3086 1110.22 72.323 1113.09 68.5362C1115.95 64.767 1117.41 60.3205 1117.41 55.3206C1117.41 51.2098 1116.51 47.7586 1114.74 45.0734L1114.73 45.0555Z" fill="white"/>
<path d="M1146.15 6.01562L1121.39 76.6775H1144.76L1161.13 21.6541L1177.41 76.6775H1200.87L1176.02 6.01562H1146.15Z" fill="white"/>
<path d="M1265.86 40.1469H1231.26V23.3994H1268.42V6.01562H1208.81V76.6775H1231.26V57.5307H1265.86V40.1469Z" fill="white"/>
<path d="M1417.79 54.5361L1418.51 54.1685C1428.68 48.9558 1430.81 40.3922 1430.81 34.1228V27.077C1430.81 17.3577 1422.57 6.01562 1399.32 6.01562H1359.83V76.6775H1382.51V57.449H1394.73L1409.49 76.6775H1435.34L1417.79 54.5361ZM1398.58 40.6256H1382.51V22.8332H1398.58C1406.54 22.8332 1410.53 25.7344 1410.77 31.7061C1410.53 37.7246 1406.54 40.6256 1398.58 40.6256Z" fill="white"/>
</g>
<mask id="mask1_598_975" style="mask-type:luminance" maskUnits="userSpaceOnUse" x="0" y="2" width="565" height="79">
<path d="M564.322 2.07812H0V80.5915H564.322V2.07812Z" fill="white"/>
</mask>
<g mask="url(#mask1_598_975)">
<path d="M119.23 49.1797C117.885 49.1797 116.895 49.5432 116.25 50.265C115.605 50.9868 115.276 52.088 115.252 53.5634V56.5999C115.252 58.0916 115.582 59.1928 116.235 59.8983C116.887 60.6041 117.901 60.9567 119.269 60.9567C120.637 60.9567 121.573 60.6095 122.217 59.9199C122.862 59.23 123.184 58.1556 123.2 56.7015V53.7344C123.2 52.1949 122.878 51.0508 122.233 50.3025C121.588 49.5542 120.59 49.1797 119.23 49.1797Z" fill="white"/>
<path d="M56.8127 49.1797H55.6279V60.9567H56.6052C57.6937 60.9567 58.4582 60.6403 58.9036 60.0125C59.3491 59.3847 59.5818 58.2957 59.6021 56.7573V53.674C59.6021 52.0186 59.3896 50.8629 58.9694 50.2076C58.5491 49.5522 57.8301 49.2132 56.8177 49.1797H56.8127Z" fill="white"/>
<path d="M158.819 69.675C157.99 65.6534 154.415 65.4798 153.274 65.3244C152.949 62.7451 151.851 -21.7776 44.8948 8.69457L37.2532 27.5572C37.2532 27.5572 20.9097 36.7074 20.5542 62.3979L0 69.591C0 69.591 1.33493 80.5005 10.3364 80.5905C17.3978 80.6622 46.7912 76.9876 79.3908 76.6108C79.3908 76.6108 92.6341 76.6347 93.3577 76.6406C114.049 76.8083 125.802 78.5975 147.766 80.0158C159.842 80.7936 159.169 71.3864 158.819 69.6809V69.675ZM45.001 36.9527C43.1109 35.6958 42.9924 33.0029 44.7451 31.5667C75.8541 6.13923 104.91 13.4102 119.189 19.5142C119.67 19.7177 119.414 20.4119 118.909 20.2862C88.2115 12.6323 65.3305 27.5572 55.5804 34.9718C49.4363 39.6456 45.001 36.9527 45.001 36.9527ZM64.0266 56.1622C64.0266 58.6698 63.3345 60.6446 61.9559 62.0688C60.5773 63.4991 58.6745 64.2112 56.2479 64.2112H51.0954V45.1093H56.3601C58.6871 45.1093 60.5398 45.8155 61.9184 47.2338C63.297 48.6521 64.0017 50.5909 64.0329 53.0564V56.1503L64.0266 56.1622ZM79.8588 58.3405C79.8399 60.3275 79.2723 61.8474 78.1496 62.9005C77.0266 63.9539 75.4173 64.4805 73.3213 64.4805C71.2254 64.4805 69.56 63.948 68.4307 62.8826C67.3017 61.8175 66.7403 60.2734 66.7403 58.2508V45.1212H70.7889V58.2628C70.7889 59.3458 70.9698 60.124 71.3376 60.5848C71.7057 61.0456 72.3607 61.279 73.3213 61.279C74.282 61.279 74.937 61.0516 75.2925 60.5908C75.648 60.13 75.8289 59.376 75.8415 58.3285V45.1212H79.8588V58.3465V58.3405ZM94.337 64.2172H82.9092V45.1153H94.3121V48.3287H86.9265V52.8409H93.1894V55.9468H86.9265V61.0094H94.337V64.2112V64.2172ZM101.193 60.0941C101.735 60.8839 102.628 61.279 103.869 61.279C104.661 61.279 105.303 61.1233 105.796 60.8182L106.152 60.5848V57.0839H103.332V54.1696H110.182V62.0509C109.408 62.8527 108.454 63.4632 107.331 63.8699C106.202 64.277 104.973 64.4805 103.632 64.4805C101.343 64.4805 99.5646 63.7982 98.2982 62.4397C97.0321 61.0815 96.3769 59.1004 96.3457 56.5035V53.0683C96.3457 50.4352 96.9445 48.4127 98.1422 46.9884C99.3399 45.5701 101.087 44.858 103.388 44.858C105.547 44.858 107.181 45.3666 108.279 46.3898C109.377 47.413 110.013 49.0169 110.188 51.2012H106.277C106.171 49.9864 105.902 49.1547 105.484 48.7178C105.066 48.2749 104.411 48.0535 103.513 48.0535C102.428 48.0535 101.642 48.4366 101.149 49.1965C100.656 49.9565 100.4 51.1713 100.382 52.829V56.294C100.382 58.0354 100.656 59.298 101.193 60.0941ZM127.043 56.3896C127.043 58.951 126.413 60.9437 125.147 62.356C123.887 63.7743 122.134 64.4805 119.888 64.4805C117.642 64.4805 115.902 63.7803 114.623 62.3739C113.344 60.9676 112.702 59.0048 112.683 56.4793V53.2121C112.683 50.5909 113.319 48.5382 114.586 47.0661C115.852 45.594 117.611 44.858 119.863 44.858C122.115 44.858 123.824 45.5821 125.103 47.0302C126.382 48.4784 127.024 50.5069 127.043 53.1221V56.3896Z" fill="white"/>
<path d="M470.158 25.6439L476.893 6.01562H416.066L409.334 25.6439H470.158Z" fill="white"/>
<path d="M470.158 53.1206L476.893 33.4922H416.066L409.334 53.1206H470.158Z" fill="white"/>
<path d="M470.158 80.5891L476.893 60.9609H416.066L409.334 80.5891H470.158Z" fill="white"/>
<path d="M243.731 45.0555C241.964 42.3819 239.066 40.2206 235.12 38.6363C231.105 37.0284 225.741 35.9507 219.179 35.4444L205.741 34.2841C201.995 33.9485 199.472 33.3065 198.023 32.3171C196.506 31.2865 195.738 29.9319 195.738 28.2888C195.738 26.0745 197.018 24.4019 199.534 23.3183C201.869 22.3171 205.042 21.8047 208.957 21.8047C211.91 21.8047 214.502 22.1051 216.662 22.7058C218.867 23.3124 220.602 24.2017 221.826 25.3442C222.919 26.363 223.649 27.5527 223.993 28.8778H244.505C244.087 24.4903 242.432 20.5798 239.578 17.2347C236.55 13.6953 232.41 10.9096 227.271 8.96614C222.101 7.00502 216.094 6.01562 209.431 6.01562C202.769 6.01562 196.425 6.91667 191.342 8.68348C186.303 10.4385 182.331 13.0533 179.522 16.4573C176.73 19.8378 175.319 24.1133 175.319 29.1664C175.319 35.3265 177.498 40.2913 181.795 43.919C186.134 47.5764 193.302 49.82 203.1 50.5796L215.332 51.6457C219.51 51.9813 222.263 52.641 223.743 53.6599C225.292 54.7256 226.072 56.1333 226.072 57.8352C226.072 60.2441 224.736 62.0462 222.088 63.1946C219.628 64.2663 216.175 64.8082 211.835 64.8082C208.694 64.8082 205.91 64.4549 203.562 63.76C201.176 63.0532 199.253 62.0167 197.848 60.6917C196.568 59.4785 195.744 58.0649 195.394 56.4809H174.876C175.126 61.0685 176.712 65.185 179.609 68.7128C182.662 72.4408 186.958 75.3853 192.372 77.4584C197.817 79.5433 204.242 80.6034 211.461 80.6034C218.679 80.6034 224.711 79.5314 229.938 77.4112C235.133 75.3086 239.223 72.323 242.095 68.5362C244.955 64.767 246.41 60.3205 246.41 55.3206C246.41 51.2098 245.51 47.7586 243.737 45.0734L243.731 45.0555Z" fill="white"/>
<path d="M275.151 6.01562L250.393 76.6775H273.756L290.127 21.6541L306.414 76.6775H329.874L305.018 6.01562H275.151Z" fill="white"/>
<path d="M394.856 40.1469H360.264V23.3994H397.422V6.01562H337.813V76.6775H360.264V57.5307H394.856V40.1469Z" fill="white"/>
<path d="M546.789 54.5361L547.506 54.1685C557.677 48.9558 559.812 40.3922 559.812 34.1228V27.077C559.812 17.3577 551.566 6.01562 528.323 6.01562H488.83V76.6775H511.506V57.449H523.728L538.494 76.6775H564.336L546.789 54.5361ZM527.582 40.6256H511.513V22.8332H527.582C535.543 22.8332 539.526 25.7344 539.772 31.7061C539.533 37.7246 535.543 40.6256 527.582 40.6256Z" fill="white"/>
</g>
<rect x="715" y="2" width="6" height="80" fill="white"/>
</svg>
