<svg width="786" height="110" viewBox="0 0 786 110" fill="none" xmlns="http://www.w3.org/2000/svg">
<g clip-path="url(#clip0_876_804)">
<path d="M166.06 64.7812C164.188 64.7812 162.808 65.2812 161.91 66.2736C161.012 67.266 160.552 68.7804 160.52 70.8094V74.985C160.52 77.036 160.979 78.5504 161.888 79.5208C162.797 80.4912 164.21 80.9764 166.115 80.9764C168.02 80.9764 169.323 80.4986 170.221 79.5502C171.119 78.6019 171.568 77.1243 171.59 75.1247V71.0447C171.59 68.9274 171.141 67.3542 170.243 66.325C169.345 65.2959 167.955 64.7812 166.06 64.7812Z" fill="#FE9600"/>
<path d="M79.1422 64.7812H77.4922V80.9764H78.8531C80.3691 80.9764 81.4338 80.541 82.0543 79.6777C82.6748 78.8145 82.9992 77.3172 83.0274 75.2012V70.9614C83.0274 68.6849 82.7312 67.0959 82.146 66.1945C81.5607 65.2931 80.5595 64.8271 79.1492 64.7812H79.1422Z" fill="#FE9600"/>
<path d="M221.207 92.9559C220.052 87.4257 215.073 87.1871 213.483 86.9731C213.031 83.4263 211.502 -32.8053 62.5305 9.09862L51.8872 35.0376C51.8872 35.0376 29.1236 47.6203 28.6283 82.949L0 92.8407C0 92.8407 1.85932 107.843 14.3967 107.966C24.232 108.065 65.1718 103.012 110.577 102.494C110.577 102.494 129.023 102.527 130.031 102.535C158.85 102.765 175.219 105.226 205.811 107.176C222.632 108.246 221.694 95.3095 221.207 92.9641V92.9559ZM62.6782 47.9577C60.0456 46.2295 59.8806 42.5263 62.322 40.5513C105.651 5.58468 146.122 15.5834 166.01 23.9773C166.679 24.2571 166.322 25.2117 165.619 25.0389C122.863 14.5135 90.9938 35.0376 77.4138 45.2338C68.8557 51.6609 62.6782 47.9577 62.6782 47.9577ZM89.1779 74.374C89.1779 77.8221 88.2135 80.5378 86.2934 82.4963C84.3732 84.4632 81.7232 85.4425 78.3434 85.4425H71.1668V59.1743H78.4998C81.7406 59.1743 84.3211 60.1454 86.2412 62.0957C88.1614 64.0461 89.1432 66.7124 89.1866 70.1029V74.3575L89.1779 74.374ZM111.229 77.3694C111.203 80.1016 110.412 82.1919 108.848 83.6402C107.285 85.0886 105.043 85.8128 102.124 85.8128C99.2043 85.8128 96.8845 85.0804 95.3119 83.6155C93.7393 82.1507 92.9574 80.0275 92.9574 77.246V59.1908H98.5962V77.2625C98.5962 78.752 98.8481 79.8218 99.3607 80.4555C99.8733 81.0891 100.786 81.4101 102.124 81.4101C103.462 81.4101 104.374 81.0974 104.869 80.4637C105.364 79.83 105.616 78.7931 105.634 77.353V59.1908H111.229V77.3777V77.3694ZM131.395 85.4507H115.478V59.1825H131.36V63.6017H121.073V69.8067H129.796V74.0777H121.073V81.0398H131.395V85.4425V85.4507ZM140.943 79.7807C141.699 80.8669 142.942 81.4101 144.671 81.4101C145.774 81.4101 146.669 81.1961 147.356 80.7764L147.851 80.4555V75.6413H143.924V71.6336H153.464V82.4717C152.386 83.5744 151.057 84.4138 149.493 84.9734C147.92 85.533 146.209 85.8128 144.341 85.8128C141.152 85.8128 138.676 84.8746 136.912 83.0066C135.148 81.1385 134.236 78.4146 134.193 74.843V70.1194C134.193 66.4985 135.027 63.7169 136.695 61.7583C138.363 59.808 140.796 58.8287 144.002 58.8287C147.008 58.8287 149.284 59.5282 150.814 60.9354C152.343 62.3426 153.229 64.5481 153.472 67.5518H148.025C147.877 65.8813 147.503 64.7374 146.921 64.1366C146.339 63.5277 145.427 63.2232 144.176 63.2232C142.664 63.2232 141.569 63.7498 140.883 64.795C140.196 65.8401 139.84 67.5107 139.814 69.7902V74.555C139.814 76.9498 140.196 78.6861 140.943 79.7807ZM176.948 74.6867C176.948 78.2088 176.071 80.9492 174.307 82.8914C172.552 84.8417 170.111 85.8128 166.983 85.8128C163.855 85.8128 161.431 84.8499 159.65 82.916C157.869 80.9821 156.974 78.2829 156.948 74.8101V70.3169C156.948 66.7124 157.834 63.8897 159.598 61.8653C161.361 59.8409 163.811 58.8287 166.948 58.8287C170.084 58.8287 172.465 59.8244 174.246 61.816C176.027 63.8075 176.922 66.5972 176.948 70.1934V74.6867Z" fill="#FE9600"/>
<path d="M654.839 32.3825L664.224 5.39062H579.5L570.125 32.3825H654.839Z" fill="#ED2524"/>
<path d="M654.839 70.1794L664.224 43.1875H579.5L570.125 70.1794H654.839Z" fill="#FE9600"/>
<path d="M654.839 107.968L664.224 80.9766H579.5L570.125 107.968H654.839Z" fill="#0EB164"/>
<path d="M339.454 59.0765C336.992 55.3997 332.957 52.4275 327.46 50.249C321.868 48.0381 314.397 46.556 305.257 45.8595L286.54 44.2641C281.322 43.8025 277.809 42.9197 275.791 41.5591C273.677 40.1419 272.608 38.2792 272.608 36.0197C272.608 32.9746 274.391 30.6746 277.896 29.1844C281.148 27.8077 285.566 27.1031 291.019 27.1031C295.133 27.1031 298.742 27.5161 301.752 28.3422C304.822 29.1763 307.24 30.3992 308.944 31.9704C310.466 33.3714 311.484 35.0073 311.962 36.8295H340.532C339.949 30.7961 337.645 25.4186 333.67 20.8185C329.452 15.9512 323.686 12.1206 316.528 9.44804C309.327 6.7512 300.96 5.39062 291.68 5.39062C282.401 5.39062 273.564 6.62972 266.485 9.05931C259.466 11.4727 253.935 15.0685 250.021 19.7495C246.134 24.3981 244.168 30.2777 244.168 37.2264C244.168 45.6976 247.204 52.5247 253.187 57.5135C259.232 62.5427 269.216 65.6283 282.862 66.673L299.899 68.1389C305.718 68.6005 309.553 69.5075 311.614 70.9086C313.771 72.3745 314.858 74.31 314.858 76.6506C314.858 79.9629 312.997 82.4411 309.309 84.0203C305.883 85.4943 301.073 86.2393 295.029 86.2393C290.654 86.2393 286.775 85.7534 283.505 84.7978C280.183 83.8259 277.504 82.4006 275.547 80.5784C273.764 78.9101 272.616 76.9664 272.129 74.7879H243.551C243.899 81.0967 246.108 86.7577 250.143 91.6087C254.396 96.7352 260.38 100.784 267.92 103.635C275.504 106.502 284.453 107.96 294.507 107.96C304.561 107.96 312.962 106.486 320.242 103.57C327.478 100.679 333.174 96.5732 337.175 91.3658C341.158 86.1826 343.185 80.0682 343.185 73.1924C343.185 67.5396 341.932 62.7938 339.462 59.1008L339.454 59.0765Z" fill="#001A99"/>
<path d="M383.203 5.39062L348.719 102.562H381.259L404.062 26.8959L426.747 102.562H459.423L424.802 5.39062H383.203Z" fill="#001A99"/>
<path d="M549.948 52.3265H501.768V29.296H553.524V5.39062H470.496V102.562H501.768V76.2319H549.948V52.3265Z" fill="#001A99"/>
<path d="M761.561 72.1138L762.56 71.6081C776.726 64.4397 779.698 52.6636 779.698 44.0422V34.3533C779.698 20.9877 768.214 5.39062 735.84 5.39062H680.832V102.562H712.417V76.1195H729.441L750.007 102.562H786.001L761.561 72.1138ZM734.806 52.9847H712.426V28.5174H734.806C745.895 28.5174 751.444 32.507 751.786 40.7189C751.453 48.9951 745.895 52.9847 734.806 52.9847Z" fill="#001A99"/>
</g>
<defs>
<clipPath id="clip0_876_804">
<rect width="786" height="110" fill="white"/>
</clipPath>
</defs>
</svg>
