<svg width="158" height="30" viewBox="0 0 158 30" fill="none" xmlns="http://www.w3.org/2000/svg">
<g clip-path="url(#clip0_1115_1269)">
<path d="M64.2415 8.34375V25.0353H57.9758V20.6575H61.953V18.5843H53.5391V10.9887H61.7037V8.9155H50.2702L50.2931 20.657H54.574V25.0347H48.2773V27.2162H64.241V29.753H67.7671V8.34375H64.241H64.2415Z" fill="white"/>
<path d="M73.1836 9.5V11.5732H85.5202V21.9766H89.0458V9.50053H73.1836V9.5Z" fill="white"/>
<path d="M91.6961 25.5664V27.7526H70.5391V25.5664H77.5263V17.7109H81.3508V25.5664H91.6961Z" fill="white"/>
<path d="M113.921 8.34375H110.395V29.7535H113.921V8.34375Z" fill="white"/>
<path d="M116.859 25.3281V27.517H138.014V25.3281H116.859Z" fill="white"/>
<path d="M149.944 8.36719V12.6447H147.897V14.9497H149.944V17.0845H142.386V14.9036H146.643V12.8303H142.386V10.8738H148.154V8.80846H139.117V19.1652H152.964V8.36719H149.944ZM154.731 8.36719V27.5653H145.414V23.4267H152.964V21.3535H142.137V28.137C142.137 29.1734 142.767 29.7536 143.904 29.7536H158V8.36719H154.731Z" fill="white"/>
<path d="M136.271 19.9802L134.748 22.1972C133.877 21.9654 133.061 21.6488 132.284 21.2319C131.507 20.8225 130.791 20.3361 130.131 19.7877C129.477 19.2313 128.895 18.6214 128.397 17.9494C127.946 17.3548 127.581 16.721 127.301 16.057C127.014 16.721 126.648 17.3548 126.198 17.9494C125.708 18.6214 125.125 19.2319 124.464 19.7877C123.804 20.3361 123.088 20.8225 122.311 21.2319C121.542 21.6488 120.718 21.966 119.855 22.1972L118.332 19.9802C119.381 19.7251 120.361 19.3236 121.247 18.7832C122.148 18.2422 122.926 17.6169 123.578 16.9061C123.578 16.9061 125.545 14.774 125.545 12.0399V8.46094H129.058V12.0399C129.058 14.7746 131.017 16.9061 131.017 16.9061C131.67 17.6169 132.447 18.2422 133.348 18.7832C134.242 19.3236 135.222 19.7256 136.271 19.9802H136.271Z" fill="white"/>
<path d="M108.506 23.0129L106.944 25.1371C103.874 23.4144 101.511 19.81 101.099 17.9255C100.687 19.81 98.324 23.4149 95.2536 25.1371L93.6914 23.0129C99.3343 19.5214 99.3423 12.7554 99.3423 12.7554V8.46094H102.856V12.7554C102.856 12.7554 102.864 19.522 108.506 23.0129H108.506Z" fill="white"/>
<path d="M52.4563 0.0859375H50.2734V5.46185H52.4563C54.1593 5.46185 54.9871 4.67795 54.9871 3.06454V2.43233C54.9871 0.853925 54.1593 0.0859375 52.4563 0.0859375ZM53.9741 3.06401C53.9741 4.08817 53.5386 4.50558 52.4712 4.50558H51.2795V1.04168H52.4712C53.5386 1.04168 53.9741 1.44264 53.9741 2.42438V3.06401Z" fill="white"/>
<path d="M60.1203 3.08682C60.1203 4.14704 59.7061 4.57983 58.6915 4.57983C57.677 4.57983 57.2628 4.14704 57.2628 3.08682V0.0859375H56.2344V3.04916C56.2344 4.72197 57.0381 5.53504 58.691 5.53504C60.3439 5.53504 61.1476 4.7225 61.1476 3.04916V0.0859375H60.1197V3.08682H60.1203Z" fill="white"/>
<path d="M62.5742 5.46132H66.6144V4.50558H63.5797V3.19607H66.2445V2.28489H63.5797V1.04168H66.6144V0.0859375H62.5742V5.46132Z" fill="white"/>
<path d="M69.7711 3.40648H71.401L71.4031 3.66106C71.3279 4.31713 70.9036 4.59611 69.9851 4.59611C68.9572 4.59611 68.5377 4.15961 68.5377 3.09037V2.38974C68.5377 1.34755 68.9486 0.941808 70.0027 0.941808C70.9004 0.941808 71.3273 1.22556 71.3866 1.86095L71.394 1.94369H72.4076L72.4022 1.84822C72.3318 0.626764 71.5243 0.0078125 70.0027 0.0078125C68.3525 0.0078125 67.5156 0.811866 67.5156 2.39823V3.0909C67.5156 4.71068 68.3023 5.5317 69.8543 5.5317C70.5524 5.5317 71.0765 5.39115 71.449 5.10156L71.4624 5.45639H72.4284V2.52499H69.7721V3.40701L69.7711 3.40648Z" fill="white"/>
<path d="M76.1709 0.0234375C74.4919 0.0234375 73.6406 0.822187 73.6406 2.39847V3.09008C73.6406 4.72312 74.4679 5.51709 76.1709 5.51709C77.874 5.51709 78.7017 4.72312 78.7017 3.09008V2.39847C78.7017 0.822187 77.8499 0.0234375 76.1709 0.0234375ZM77.6733 3.0747C77.6733 4.13016 77.2383 4.56082 76.1704 4.56082C75.1024 4.56082 74.668 4.13016 74.668 3.0747V2.41332C74.668 1.39447 75.1035 0.978648 76.1704 0.978648C77.2373 0.978648 77.6733 1.39447 77.6733 2.41332V3.0747Z" fill="white"/>
<path d="M84.1215 2.29745L83.3236 2.19403C83.2388 2.18342 83.1592 2.16963 83.0866 2.15584C82.4521 2.03545 82.332 1.83337 82.332 1.50242C82.332 1.34543 82.332 0.928549 83.5029 0.928549C84.2683 0.928549 84.6616 1.16987 84.7048 1.6663L84.7118 1.74904H85.6938L85.6901 1.65464C85.6644 1.0394 85.348 0.0078125 83.5109 0.0078125C81.6739 0.0078125 81.3265 0.836263 81.3265 1.53053C81.3265 1.83019 81.3847 2.07841 81.5021 2.28738C81.833 2.90315 82.5732 3.07022 83.1806 3.14712L83.932 3.24153C84.5164 3.32215 84.7812 3.47436 84.8463 3.76289C84.8564 3.81168 84.8612 3.86154 84.8644 3.91352C84.8644 4.13787 84.8644 4.6046 83.6294 4.6046C82.7307 4.6046 82.2759 4.32138 82.2397 3.73849L82.2343 3.65363H81.2539L81.2571 3.74751C81.279 4.41101 81.6168 5.52321 83.6294 5.52321C85.1121 5.52321 85.864 4.97427 85.864 3.86154C85.864 3.82388 85.8619 3.78729 85.8587 3.73849C85.7989 2.91163 85.2311 2.44066 84.1226 2.29745H84.1215Z" fill="white"/>
<path d="M90.2785 0.0859375L88.8487 2.15653L87.4131 0.0859375H86.1797L88.3545 3.09053V5.49049H89.36L89.3435 3.1266L91.4847 0.0859375H90.2785Z" fill="white"/>
<path d="M94.7508 2.29746L93.9539 2.19403C93.7084 2.16115 93.52 2.12031 93.377 2.06833C93.123 1.97499 93.005 1.85194 92.9703 1.64244C92.9634 1.60054 92.9607 1.55227 92.9607 1.50242C92.9607 1.34543 92.9607 0.928549 94.1317 0.928549C94.8975 0.928549 95.2898 1.16987 95.3304 1.66577L95.3373 1.74904H96.3225L96.3188 1.65464C96.2942 1.0394 95.9778 0.0078125 94.137 0.0078125C92.2963 0.0078125 91.9552 0.836263 91.9552 1.53053C91.9552 1.57932 91.9552 1.62494 91.9611 1.66365C91.9728 1.86042 92.0139 2.0381 92.0823 2.18767C92.0972 2.2232 92.1137 2.26139 92.1335 2.28738C92.3016 2.6056 92.5919 2.83208 93.0221 2.97952C93.2372 3.05271 93.487 3.10575 93.8098 3.14765L94.5608 3.24206C95.3293 3.34973 95.4841 3.57089 95.4926 3.91405C95.4926 4.1384 95.4926 4.60513 94.2571 4.60513C93.3583 4.60513 92.9042 4.32191 92.8679 3.73902L92.8625 3.65416H91.8789L91.8821 3.74804C91.904 4.41154 92.2424 5.52375 94.2566 5.52375C95.7381 5.52375 96.489 4.9748 96.489 3.86154C96.4832 2.95831 95.9137 2.44649 94.7497 2.29799L94.7508 2.29746Z" fill="white"/>
<path d="M97.1914 1.04168H98.9153V5.46132H99.9288V1.04168H101.653V0.0859375H97.1914V1.04168Z" fill="white"/>
<path d="M102.754 5.46132H106.794V4.50558H103.76V3.19607H106.424V2.28489H103.76V1.04168H106.794V0.0859375H102.754V5.46132Z" fill="white"/>
<path d="M110.964 3.6318L109.008 0.0703125H107.977V5.46002H108.968V2.06666L110.601 5.05587H111.333L112.913 2.10166V5.46002H113.911V0.0703125H112.879L110.964 3.6318Z" fill="white"/>
<path d="M28.9247 0H13.332L19.3485 8.81966H28.9247C32.2823 8.81966 35.0143 11.5347 35.0143 14.8713C35.0143 18.2079 32.2823 20.9229 28.9247 20.9229H27.6054L33.1997 29.1236C39.3811 27.2954 43.8898 21.6076 43.8898 14.8713C43.8893 6.65837 37.1897 0 28.9247 0Z" fill="white"/>
<path d="M21.274 14.8872L11.1203 0H0L10.1457 14.876L0.00106741 29.75H11.1213L21.274 14.8872Z" fill="white"/>
<path d="M22.3787 16.5078L16.8164 24.6571L20.2892 29.7492H31.4095L22.3787 16.5078Z" fill="white"/>
</g>
<defs>
<clipPath id="clip0_1115_1269">
<rect width="158" height="30" fill="white"/>
</clipPath>
</defs>
</svg>
