<svg width="158" height="30" viewBox="0 0 158 30" fill="none" xmlns="http://www.w3.org/2000/svg">
<g clip-path="url(#clip0_1115_1176)">
<path d="M64.2415 8.40625V25.2414H57.9758V20.826H61.953V18.7349H53.5391V11.074H61.7037V8.98292H50.2702L50.2931 20.8254H54.574V25.2408H48.2773V27.441H64.241V29.9997H67.7672V8.40625H64.241H64.2415Z" fill="#002452"/>
<path d="M73.1836 9.57031V11.6614H85.5202V22.1543H89.0458V9.57085H73.1836V9.57031Z" fill="#002452"/>
<path d="M91.6962 25.7746V27.9791H70.5391V25.7746H77.5263V17.8516H81.3503V25.7746H91.6962Z" fill="#002452"/>
<path d="M113.921 8.40625H110.395V30.0002H113.921V8.40625Z" fill="#002452"/>
<path d="M116.859 25.5391V27.7468H138.014V25.5391H116.859Z" fill="#002452"/>
<path d="M149.944 8.42969V12.744H147.897V15.0688H149.944V17.222H142.386V15.0223H146.643V12.9312H142.386V10.9578H148.154V8.87476H139.117V19.3205H152.964V8.42969H149.944ZM154.731 8.42969V27.7929H145.414V23.6188H152.964V21.5277H142.137V28.3696C142.137 29.4149 142.767 30.0001 143.904 30.0001H158V8.42969H154.731Z" fill="#002452"/>
<path d="M136.271 20.1418L134.748 22.3779C133.877 22.1441 133.061 21.8247 132.284 21.4043C131.507 20.9913 130.791 20.5008 130.131 19.9476C129.477 19.3865 128.895 18.7713 128.397 18.0935C127.946 17.4939 127.581 16.8546 127.301 16.1849C127.014 16.8546 126.648 17.4939 126.198 18.0935C125.708 18.7713 125.125 19.387 124.464 19.9476C123.804 20.5008 123.088 20.9913 122.311 21.4043C121.542 21.8247 120.718 22.1446 119.855 22.3779L118.332 20.1418C119.381 19.8845 120.361 19.4796 121.247 18.9345C122.148 18.3888 122.926 17.7581 123.578 17.0413C123.578 17.0413 125.545 14.8908 125.545 12.1332V8.52344H129.058V12.1332C129.058 14.8914 131.017 17.0413 131.017 17.0413C131.67 17.7581 132.447 18.3888 133.348 18.9345C134.242 19.4796 135.222 19.885 136.271 20.1418H136.271Z" fill="#002452"/>
<path d="M108.51 23.2006L106.948 25.343C103.878 23.6055 101.515 19.9701 101.103 18.0694C100.691 19.9701 98.3279 23.6061 95.2575 25.343L93.6953 23.2006C99.3382 19.6791 99.3462 12.8549 99.3462 12.8549V8.52344H102.86V12.8549C102.86 12.8549 102.868 19.6796 108.51 23.2006H108.51Z" fill="#002452"/>
<path d="M52.4563 0.078125H50.2734V5.50028H52.4563C54.1593 5.50028 54.9871 4.70964 54.9871 3.08235V2.4447C54.9871 0.852719 54.1593 0.078125 52.4563 0.078125ZM53.9741 3.08235C53.9741 4.11532 53.5386 4.53632 52.4712 4.53632H51.2795V1.04262H52.4712C53.5386 1.04262 53.9741 1.44704 53.9741 2.43721V3.08235Z" fill="#002452"/>
<path d="M60.1203 3.10482C60.1203 4.17416 59.7061 4.61068 58.6915 4.61068C57.677 4.61068 57.2628 4.17416 57.2628 3.10482V0.078125H56.2344V3.06684C56.2344 4.75404 57.0381 5.5741 58.691 5.5741C60.3439 5.5741 61.1477 4.75457 61.1477 3.06684V0.078125H60.1197V3.10482H60.1203Z" fill="#002452"/>
<path d="M62.5703 5.50028H66.6105V4.53632H63.5758V3.21502H66.2406V2.29652H63.5758V1.04262H66.6105V0.078125H62.5703V5.50028Z" fill="#002452"/>
<path d="M69.7711 3.4279H71.401L71.4031 3.68467C71.3279 4.34639 70.9036 4.62777 69.9851 4.62777C68.9572 4.62777 68.5377 4.18751 68.5377 3.10907V2.40242C68.5377 1.35126 68.9486 0.94203 70.0027 0.94203C70.9004 0.94203 71.3273 1.22822 71.3866 1.86908L71.3941 1.95253H72.4076L72.4022 1.85624C72.3318 0.624276 71.5243 0 70.0027 0C68.3525 0 67.5156 0.81097 67.5156 2.41098V3.10961C67.5156 4.74332 68.3023 5.57141 69.8543 5.57141C70.5524 5.57141 71.0765 5.42965 71.449 5.13757L71.4624 5.49544H72.4284V2.53883H69.7721V3.42843L69.7711 3.4279Z" fill="#002452"/>
<path d="M76.1709 0.015625C74.4919 0.015625 73.6406 0.821245 73.6406 2.41109V3.10865C73.6406 4.75573 74.4679 5.55654 76.1709 5.55654C77.874 5.55654 78.7017 4.75573 78.7017 3.10865V2.41109C78.7017 0.821245 77.85 0.015625 76.1709 0.015625ZM77.6733 3.09367C77.6733 4.1582 77.2383 4.59258 76.1704 4.59258C75.1024 4.59258 74.668 4.1582 74.668 3.09367V2.4266C74.668 1.39898 75.1035 0.979588 76.1704 0.979588C77.2373 0.979588 77.6733 1.39898 77.6733 2.4266V3.09367Z" fill="#002452"/>
<path d="M84.1215 2.30934L83.3236 2.20502C83.2388 2.19433 83.1592 2.18042 83.0866 2.16651C82.4521 2.04508 82.332 1.84127 82.332 1.50746C82.332 1.34912 82.332 0.928657 83.5029 0.928657C84.2683 0.928657 84.6616 1.17205 84.7048 1.67276L84.7118 1.75621H85.6938L85.6901 1.66099C85.6644 1.04046 85.348 0 83.5109 0C81.6739 0 81.3265 0.835577 81.3265 1.53581C81.3265 1.83806 81.3847 2.08841 81.5021 2.29917C81.833 2.92024 82.5732 3.08875 83.1806 3.16631L83.932 3.26153C84.5164 3.34284 84.7812 3.49637 84.8463 3.78738C84.8564 3.83659 84.8612 3.88688 84.8644 3.9393C84.8644 4.16558 84.8644 4.63633 83.6294 4.63633C82.7307 4.63633 82.2759 4.35067 82.2397 3.76277L82.2343 3.67718H81.2539L81.2571 3.77187C81.279 4.44108 81.6168 5.56285 83.6294 5.56285C85.1121 5.56285 85.864 5.00918 85.864 3.88688C85.864 3.8489 85.8619 3.81199 85.8587 3.76277C85.7989 2.9288 85.2311 2.45377 84.1226 2.30934H84.1215Z" fill="#002452"/>
<path d="M90.2785 0.078125L88.8487 2.16653L87.4131 0.078125H86.1797L88.3545 3.10856V5.52917H89.36L89.3435 3.14494L91.4847 0.078125H90.2785Z" fill="#002452"/>
<path d="M94.7508 2.30934L93.9539 2.20502C93.7084 2.17186 93.5201 2.13067 93.377 2.07824C93.123 1.98409 93.005 1.85999 92.9703 1.64869C92.9634 1.60643 92.9607 1.55775 92.9607 1.50746C92.9607 1.34912 92.9607 0.928657 94.1317 0.928657C94.8975 0.928657 95.2898 1.17205 95.3304 1.67222L95.3373 1.75621H96.3225L96.3188 1.66099C96.2942 1.04046 95.9778 0 94.137 0C92.2963 0 91.9552 0.835577 91.9552 1.53581C91.9552 1.58503 91.9552 1.63103 91.9611 1.67008C91.9728 1.86855 92.0139 2.04775 92.0823 2.19861C92.0972 2.23445 92.1137 2.27296 92.1335 2.29917C92.3016 2.62014 92.5919 2.84856 93.0221 2.99727C93.2372 3.07109 93.487 3.12459 93.8099 3.16685L94.5608 3.26207C95.3293 3.37066 95.4841 3.59373 95.4926 3.93984C95.4926 4.16612 95.4926 4.63687 94.2571 4.63687C93.3583 4.63687 92.9042 4.35121 92.8679 3.76331L92.8625 3.67772H91.8789L91.8821 3.7724C91.904 4.44161 92.2424 5.56338 94.2566 5.56338C95.7381 5.56338 96.489 5.00972 96.489 3.88688C96.4832 2.97587 95.9137 2.45966 94.7497 2.30987L94.7508 2.30934Z" fill="#002452"/>
<path d="M97.1875 1.04262H98.9114V5.50028H99.9249V1.04262H101.649V0.078125H97.1875V1.04262Z" fill="#002452"/>
<path d="M102.754 5.50028H106.794V4.53632H103.76V3.21502H106.424V2.29652H103.76V1.04262H106.794V0.078125H102.754V5.50028Z" fill="#002452"/>
<path d="M110.964 3.65463L109.008 0.0625H107.977V5.4991H108.968V2.07655L110.601 5.09094H111.333L112.913 2.11186V5.4991H113.911V0.0625H112.879L110.964 3.65463Z" fill="#002452"/>
<path d="M28.9253 0H13.332L19.3485 8.89606H28.9253C32.2833 8.89606 35.0154 11.6344 35.0154 15.0003C35.0154 18.3661 32.2833 21.1045 28.9253 21.1045H27.6054L33.2002 29.3763C39.3816 27.5323 43.8909 21.7956 43.8909 15.0008C43.8903 6.71564 37.1902 0 28.9253 0Z" fill="#002452"/>
<path d="M15.7031 23.2183L20.2898 29.9997H31.4074L21.2617 15L15.7031 23.2183Z" fill="#82AFF5"/>
<path d="M0 29.9997H11.1171L15.7037 23.2183L10.1452 15L0 29.9997Z" fill="#0064CD"/>
<path d="M15.7031 23.2183L21.2616 15H10.1445L15.7031 23.2183Z" fill="#0541A5"/>
<path d="M11.1171 0H0L10.1452 15.0003H21.2623L15.7037 6.78144L11.1171 0Z" fill="#0064CD"/>
</g>
<defs>
<clipPath id="clip0_1115_1176">
<rect width="158" height="30" fill="white"/>
</clipPath>
</defs>
</svg>
